<?xml version="1.0" encoding="UTF-8"?>
<svg width="970px" height="200px" viewBox="0 0 970 200" version="1.1" xmlns="http://www.w3.org/2000/svg" xmlns:xlink="http://www.w3.org/1999/xlink">
    <title>LuaSTG</title>
    <g id="页面-1" stroke="none" stroke-width="1" fill="none" fill-rule="evenodd">
        <g id="画板备份-3" transform="translate(-150.000000, -150.000000)">
            <g id="LuaSTG" transform="translate(150.000000, 150.000000)">
                <g id="编组">
                    <rect id="矩形" fill="#0085EE" x="0" y="0" width="50" height="50"></rect>
                    <rect id="矩形备份" fill="#007BEE" x="0" y="50" width="50" height="50"></rect>
                    <rect id="矩形备份-2" fill="#0067EE" x="0" y="100" width="50" height="50"></rect>
                    <rect id="矩形备份-3" fill="#292929" x="0" y="150" width="50" height="50"></rect>
                    <rect id="矩形备份-21" fill="#292929" x="50" y="150" width="50" height="50"></rect>
                    <rect id="矩形备份-22" fill="#292929" x="100" y="150" width="50" height="50"></rect>
                </g>
                <g id="编组-2" transform="translate(155.000000, 100.000000)" fill="#292929">
                    <rect id="矩形备份-6" x="0" y="0" width="50" height="50"></rect>
                    <rect id="矩形备份-9" x="50" y="74" width="50" height="26"></rect>
                    <rect id="矩形备份-7" x="0" y="50" width="50" height="50"></rect>
                    <rect id="矩形备份-12" x="100" y="0" width="50" height="50"></rect>
                    <rect id="矩形备份-10" x="100" y="50" width="50" height="50"></rect>
                </g>
                <g id="编组-3" transform="translate(310.000000, 100.000000)">
                    <rect id="矩形备份-14" fill="#292929" x="50" y="0" width="50" height="25"></rect>
                    <rect id="矩形备份-17" fill="#292929" x="0" y="0" width="50" height="50"></rect>
                    <rect id="矩形备份-16" fill="#292929" x="0" y="50" width="50" height="50"></rect>
                    <rect id="矩形备份-19" fill="#292929" x="100" y="0" width="50" height="50"></rect>
                    <rect id="矩形备份-18" fill="#292929" x="100" y="50" width="50" height="50"></rect>
                    <rect id="矩形备份-107" fill="#0071EE" x="50" y="50" width="50" height="25"></rect>
                </g>
                <g id="编组-4" transform="translate(510.000000, 0.000000)">
                    <rect id="矩形备份-105" fill="#0085EE" x="0" y="175" width="50" height="25"></rect>
                    <rect id="矩形备份-106" fill="#007BEE" x="50" y="175" width="50" height="25"></rect>
                    <rect id="矩形备份-107" fill="#0071EE" x="100" y="175" width="50" height="25"></rect>
                    <rect id="矩形备份-24" fill="#292929" x="0" y="25" width="50" height="50"></rect>
                    <rect id="矩形备份-4" fill="#292929" x="0" y="0" width="50" height="50"></rect>
                    <rect id="矩形备份-25" fill="#292929" x="0" y="125" width="50" height="50"></rect>
                    <rect id="矩形备份-27" fill="#292929" x="100" y="125" width="50" height="50"></rect>
                    <rect id="矩形备份-8" fill="#292929" x="100" y="0" width="50" height="50"></rect>
                    <rect id="矩形备份-28" fill="#292929" x="100" y="91" width="50" height="34"></rect>
                    <rect id="矩形备份-5" fill="#292929" x="50" y="0" width="50" height="50"></rect>
                    <rect id="矩形备份-26" fill="#292929" x="50" y="125" width="50" height="50"></rect>
                </g>
                <g id="编组-5" transform="translate(665.000000, 0.000000)">
                    <rect id="矩形备份-108" fill="#0067EE" x="0" y="175" width="50" height="25"></rect>
                    <rect id="矩形备份-109" fill="#005DEE" x="50" y="175" width="50" height="25"></rect>
                    <rect id="矩形备份-112" fill="#0053EE" x="100" y="175" width="50" height="25"></rect>
                    <rect id="矩形备份-30" fill="#292929" x="50" y="125" width="50" height="50"></rect>
                    <rect id="矩形备份-15" fill="#292929" x="100" y="0" width="50" height="50"></rect>
                    <rect id="矩形备份-11" fill="#292929" x="0" y="0" width="50" height="50"></rect>
                    <rect id="矩形备份-13" fill="#292929" x="50" y="50" width="50" height="25"></rect>
                    <rect id="矩形备份-23" fill="#292929" x="100" y="0" width="50" height="50"></rect>
                    <rect id="矩形备份-29" fill="#292929" x="50" y="75" width="50" height="50"></rect>
                    <rect id="矩形备份-31" fill="#292929" x="50" y="0" width="50" height="50"></rect>
                </g>
                <g id="编组-6" transform="translate(820.000000, 0.000000)">
                    <rect id="矩形备份-41" fill="#0067EE" x="100" y="100" width="50" height="25"></rect>
                    <rect id="矩形备份-34" fill="#292929" x="0" y="0" width="50" height="50"></rect>
                    <rect id="矩形备份-33" fill="#292929" x="50" y="0" width="50" height="50"></rect>
                    <rect id="矩形备份-32" fill="#292929" x="100" y="0" width="50" height="50"></rect>
                    <rect id="矩形备份-37" fill="#292929" x="0" y="150" width="50" height="25"></rect>
                    <rect id="矩形备份-112" fill="#0049EE" x="0" y="175" width="50" height="25"></rect>
                    <rect id="矩形备份-40" fill="#292929" x="100" y="125" width="50" height="50"></rect>
                    <rect id="矩形备份-112" fill="#003FEE" x="50" y="175" width="50" height="25"></rect>
                    <rect id="矩形备份-36" fill="#292929" x="0" y="100" width="50" height="50"></rect>
                    <rect id="矩形备份-35" fill="#292929" x="0" y="50" width="50" height="50"></rect>
                    <rect id="矩形备份-39" fill="#292929" x="50" y="125" width="50" height="50"></rect>
                    <rect id="矩形备份-112" fill="#003FEE" x="50" y="175" width="50" height="25"></rect>
                    <rect id="矩形备份-112" fill="#0035EE" x="100" y="175" width="50" height="25"></rect>
                    <rect id="矩形备份-116" fill="#007BEE" x="125" y="0" width="25" height="25"></rect>
                    <rect id="矩形备份-119" fill="#0085EE" x="100" y="75" width="25" height="25"></rect>
                    <rect id="矩形备份-117" fill="#0085EE" x="75" y="0" width="25" height="25"></rect>
                </g>
            </g>
        </g>
    </g>
</svg>